<?xml version="1.0" encoding="UTF-8" standalone="no"?>
<svg
   xmlns:dc="http://purl.org/dc/elements/1.1/"
   xmlns:cc="http://creativecommons.org/ns#"
   xmlns:rdf="http://www.w3.org/1999/02/22-rdf-syntax-ns#"
   xmlns:svg="http://www.w3.org/2000/svg"
   xmlns="http://www.w3.org/2000/svg"
   xmlns:sodipodi="http://sodipodi.sourceforge.net/DTD/sodipodi-0.dtd"
   xmlns:inkscape="http://www.inkscape.org/namespaces/inkscape"
   version="1.0"
   width="461.000000pt"
   height="460.000000pt"
   viewBox="0 0 461.000000 460.000000"
   preserveAspectRatio="xMidYMid meet"
   id="svg3406"
   inkscape:version="0.91 r13725"
   sodipodi:docname="final.svg"
   enable-background="new">
  <metadata
     id="metadata3436">
    <rdf:RDF>
      <cc:Work
         rdf:about="">
        <dc:format>image/svg+xml</dc:format>
        <dc:type
           rdf:resource="http://purl.org/dc/dcmitype/StillImage" />
        <dc:title></dc:title>
      </cc:Work>
    </rdf:RDF>
  </metadata>
  <defs
     id="defs3434">
    <inkscape:path-effect
       effect="skeletal"
       id="path-effect4348"
       is_visible="true"
       pattern="M 0,5 C 0,2.24 2.24,0 5,0 7.76,0 10,2.24 10,5 10,7.76 7.76,10 5,10 2.24,10 0,7.76 0,5 Z"
       copytype="single_stretched"
       prop_scale="1"
       scale_y_rel="false"
       spacing="0"
       normal_offset="0"
       tang_offset="0"
       prop_units="false"
       vertical_pattern="false"
       fuse_tolerance="0" />
    <inkscape:path-effect
       effect="spiro"
       id="path-effect4346"
       is_visible="true" />
    <filter
       inkscape:collect="always"
       style="color-interpolation-filters:sRGB"
       id="filter4439">
      <feBlend
         inkscape:collect="always"
         mode="lighten"
         in2="BackgroundImage"
         id="feBlend4441" />
    </filter>
  </defs>
  <sodipodi:namedview
     pagecolor="#ffffff"
     bordercolor="#666666"
     borderopacity="1"
     objecttolerance="10"
     gridtolerance="10"
     guidetolerance="10"
     inkscape:pageopacity="0"
     inkscape:pageshadow="2"
     inkscape:window-width="1366"
     inkscape:window-height="715"
     id="namedview3432"
     showgrid="false"
     inkscape:object-nodes="true"
     inkscape:snap-bbox="true"
     inkscape:zoom="0.92347826"
     inkscape:cx="128.40278"
     inkscape:cy="287.5"
     inkscape:window-x="0"
     inkscape:window-y="0"
     inkscape:window-maximized="1"
     inkscape:current-layer="svg3406" />
  <g
     transform="translate(0.000000,460.000000) scale(0.100000,-0.100000)"
     fill="#000000"
     stroke="none"
     id="g3408">
    <path
       d="M1980 4330 c-312 -40 -679 -192 -906 -375 -239 -191 -408 -400 -534 -660 -108 -220 -160 -415 -181 -667 -33 -399 77 -831 295 -1157 99 -148 250 -321 281 -321 1 0 35 36 75 80 l73 81 -65 67 c-208 218 -347 490 -410 804 -18 93 -22 146 -22 303 0 264 28 411 124 640 230 550 779 946 1367 984 497 32 935 -129 1273 -468 144 -145 236 -269 315 -428 261 -524 226 -1127 -93 -1618 -15 -22 -61 -83 -103 -136 l-77 -97 79 -78 78 -78 22 20 c12 10 52 57 89 104 324 408 467 944 384 1440 -102 608 -469 1109 -1009 1378 -169 84 -254 114 -456 158 -109 24 -149 27 -329 30 -113 1 -234 -1 -270 -6z"
       id="path3410" />
    <path
       d="M2080 3954 c-276 -35 -516 -125 -721 -271 -118 -84 -274 -241 -357 -358 -118 -166 -212 -389 -248 -587 -24 -130 -24 -409 0 -538 51 -275 196 -562 377 -748 l63 -64 77 82 77 83 -77 88 c-556 638 -331 1639 446 1979 395 174 839 134 1205 -107 37 -25 70 -49 74 -54 3 -5 -71 -9 -180 -9 l-186 0 0 -105 0 -106 -165 148 c-91 81 -170 148 -175 148 -5 0 -241 -207 -525 -460 -284 -253 -533 -474 -553 -492 l-37 -32 156 -1 156 0 402 356 403 356 31 -29 c18 -17 194 -173 392 -348 198 -175 363 -323 367 -329 4 -7 60 -10 165 -8 l158 3 -47 42 c-26 23 -108 96 -183 162 l-135 119 0 275 0 275 66 -64 c169 -165 287 -381 349 -640 25 -102 30 -326 11 -442 -38 -231 -128 -432 -275 -613 l-57 -70 82 -78 82 -78 47 53 c325 360 444 884 311 1369 -70 257 -191 465 -386 659 -134 134 -253 219 -413 295 -207 97 -364 135 -587 140 -85 2 -171 1 -190 -1z"
       id="path3412" />
    <path
       d="M2460 2885 c0 -68 6 -77 33 -47 28 31 18 92 -18 106 -12 4 -15 -5 -15 -59z"
       id="path3414" />
    <path
       d="M2140 2850 c0 -61 11 -75 38 -48 27 27 3 108 -31 108 -4 0 -7 -27 -7 -60z"
       id="path3416" />
    <path
       d="M2287 2780 c-22 -17 -40 -20 -140 -20 -95 0 -119 -3 -136 -17 -13 -11 -36 -63 -59 -133 l-39 -115 -95 -5 c-125 -7 -128 -10 -128 -117 0 -75 2 -84 18 -81 13 2 18 15 20 61 2 31 7 57 12 57 5 0 11 -72 12 -162 3 -155 4 -163 23 -163 18 0 20 8 23 93 3 115 22 123 22 8 0 -62 4 -87 15 -96 12 -10 18 -10 30 0 12 10 15 43 15 180 l0 168 33 7 c17 4 37 12 44 17 6 5 27 53 45 106 l33 97 3 -274 c2 -238 5 -277 19 -293 20 -22 37 -23 57 -2 13 13 16 43 16 175 0 97 4 159 10 159 6 0 11 -67 12 -166 3 -146 5 -168 21 -178 12 -8 22 -8 35 0 15 10 17 37 20 293 1 168 6 281 12 281 5 0 11 -43 12 -96 3 -81 6 -99 21 -108 34 -21 47 16 47 136 0 65 4 108 10 108 6 0 10 -107 10 -300 l0 -300 26 -12 c23 -11 29 -10 45 11 17 21 19 42 19 187 0 103 4 164 10 164 6 0 10 -65 10 -175 l0 -175 25 -12 c21 -9 28 -8 45 7 19 17 20 33 22 314 l3 296 38 -113 39 -112 44 -11 44 -11 0 -178 c0 -146 3 -180 15 -190 12 -10 18 -10 30 0 11 9 15 35 15 101 0 53 4 89 10 89 6 0 10 -36 10 -89 0 -66 4 -92 15 -101 12 -10 18 -10 30 0 12 10 15 43 15 176 0 103 4 164 10 164 6 0 10 -26 10 -59 0 -33 5 -63 10 -66 42 -26 59 129 20 178 -20 25 -27 26 -122 29 l-101 3 -42 124 c-54 162 -53 161 -205 161 -102 0 -121 -3 -143 -20z"
       id="path3418" />
    <path
       d="M2780 2575 c0 -41 2 -46 15 -35 8 7 15 23 15 35 0 12 -7 28 -15 35 -13 11 -15 6 -15 -35z"
       id="path3420" />
    <path
       d="M1820 2550 c0 -37 2 -41 15 -30 8 7 15 20 15 30 0 10 -7 23 -15 30 -13 11 -15 7 -15 -30z"
       id="path3422" />
    <path
       d="M1440 2378 c-19 -21 -20 -34 -20 -252 0 -279 -2 -271 131 -412 189 -199 189 -199 189 -244 l0 -40 68 -1 c37 -1 87 -2 112 -4 89 -5 88 -5 83 93 -2 48 -6 98 -9 112 -3 15 -76 96 -182 203 -186 187 -207 201 -245 159 -31 -34 -20 -59 67 -150 83 -88 116 -136 116 -167 0 -25 -44 -15 -48 11 -2 11 -45 67 -97 123 -51 57 -95 115 -98 129 -7 36 10 78 39 97 l25 16 -3 156 c-3 149 -4 156 -27 174 -31 25 -75 24 -101 -3z"
       id="path3424" />
    <path
       d="M3020 2380 c-18 -18 -20 -33 -20 -179 0 -134 2 -160 15 -165 22 -8 47 -71 39 -100 -3 -13 -46 -68 -95 -123 -49 -54 -92 -110 -96 -125 -4 -21 -11 -28 -29 -28 -49 0 -18 62 90 178 90 97 102 124 68 155 -41 37 -60 25 -239 -155 -94 -95 -176 -186 -182 -201 -6 -16 -11 -69 -11 -118 l0 -89 130 0 130 0 1 33 c0 17 3 39 7 49 4 9 66 79 139 156 72 77 141 159 152 181 19 37 21 58 21 276 0 222 -1 236 -20 255 -11 11 -33 20 -50 20 -17 0 -39 -9 -50 -20z"
       id="path3426" />
    <path
       d="M1357 1283 c-4 -3 -7 -163 -7 -355 l0 -348 110 0 110 0 0 355 0 355 -103 0 c-57 0 -107 -3 -110 -7z"
       id="path3428" />
    <path
       d="M1800 935 l0 -355 110 0 110 0 0 93 0 93 53 52 c29 29 57 52 62 51 6 0 61 -65 123 -145 l113 -144 217 2 216 3 29 83 30 82 147 0 148 0 30 -82 30 -83 117 -3 c64 -1 115 1 112 5 -2 4 -71 164 -152 356 l-148 347 -134 0 c-118 0 -134 -2 -140 -17 -16 -45 -275 -649 -281 -654 -4 -4 -79 81 -167 189 l-159 195 149 143 150 143 -127 1 -126 0 -139 -145 c-77 -80 -142 -145 -146 -145 -4 0 -7 65 -7 145 l0 145 -110 0 -110 0 0 -355z m1263 87 c26 -76 47 -141 47 -145 0 -4 -46 -7 -101 -7 -92 0 -101 2 -96 18 26 84 93 272 97 272 3 0 26 -62 53 -138z"
       id="path3430" />
  </g>
  <path
     style="fill:#96858f;fill-opacity:1"
     d="M 109.17756,424.40366 C 78.112968,392.64295 57.07782,351.25857 48.232565,304.50094 44.982264,287.31926 44.241208,254.08615 46.680952,234.91795 53.985314,177.53017 81.645784,126.52294 126.28275,88.128462 159.7306,59.358298 208.15897,38.383873 250.86747,34.170579 c 19.51839,-1.925536 53.69526,-0.528764 69.85169,2.854764 17.30619,3.624313 29.53043,7.210122 41.12289,12.062818 68.40846,28.636349 116.87479,82.675649 136.95665,152.704829 5.64774,19.69473 7.78333,33.68362 8.41526,55.12306 1.00586,34.12541 -4.06571,62.40653 -16.97211,94.64354 -8.79767,21.97439 -26.39878,50.23944 -41.49901,66.64192 l -4.98445,5.41431 -9.47666,-9.41723 -9.47666,-9.41723 5.18328,-6.5975 c 15.4287,-19.63827 20.82396,-27.75532 28.12385,-42.31177 29.5804,-58.98525 29.56734,-124.11433 -0.0367,-182.87412 -9.82924,-19.50973 -18.98418,-32.38428 -34.6714,-48.7583 C 387.44656,86.707868 345.93412,66.326655 295.42788,61.407631 232.83399,55.311338 174.02359,76.934893 130.11221,122.19132 c -23.3352,24.04998 -37.761308,47.71455 -48.390009,79.3789 -6.364102,18.95954 -7.512598,26.90069 -8.134119,56.24252 -0.650238,30.69756 0.207741,39.71108 5.681063,59.68255 8.644822,31.54388 23.069935,58.09463 44.873305,82.59342 l 9.90055,11.12449 -2.15874,2.7444 c -3.53848,4.49843 -15.15599,16.69683 -15.90175,16.69683 -0.38015,0 -3.44238,-2.81285 -6.80495,-6.25077 z"
     id="path3438"
     inkscape:connector-curvature="0"
     transform="scale(0.8,0.8)" />
  <path
     style="fill:#6d7993;fill-opacity:1"
     d="m 139.29233,390.33705 c -16.66859,-18.86536 -30.21081,-42.53234 -38.27211,-66.88601 -6.243229,-18.86121 -7.267024,-25.44583 -7.913218,-50.89454 -0.728521,-28.69091 0.844676,-41.33249 7.758248,-62.34215 9.10407,-27.6664 22.49301,-50.11312 41.98591,-70.38986 24.6223,-25.6124 46.3619,-39.55059 77.27437,-49.543926 23.41846,-7.570684 31.85788,-8.860515 57.27913,-8.754202 25.99055,0.108694 37.54809,1.69218 55.76742,7.640639 39.55642,12.914829 75.50567,40.050049 98.70448,74.504109 40.99803,60.88885 41.51717,144.20033 1.27347,204.36615 -6.07104,9.07643 -19.63238,25.84281 -20.82749,25.7498 -0.35361,-0.0275 -4.98195,-4.10233 -10.28518,-9.05514 l -9.64226,-9.00511 5.97512,-7.45851 c 16.98992,-21.20788 26.53958,-40.32795 33.08358,-66.23908 2.73135,-10.81486 2.93222,-13.19155 2.94847,-34.88704 0.0194,-25.81685 -0.81955,-31.35816 -7.77311,-51.34456 -4.5197,-12.99084 -10.57721,-25.30101 -18.16181,-36.90873 -6.37002,-9.74886 -20.39733,-26.15699 -25.41781,-29.73188 l -3.31437,-2.36004 0,34.68007 0,34.68007 21.74772,19.25506 21.74774,19.25505 -4.15122,0.89332 c -2.28316,0.49132 -10.48595,0.73993 -18.22842,0.55245 l -14.07721,-0.34086 -50.21703,-44.62842 -50.21702,-44.62841 -12.589,11.20048 c -6.92396,6.16026 -29.40045,26.10125 -49.94776,44.31331 l -37.35876,33.11284 -18.89595,0.0444 c -10.5267,0.0247 -18.44032,-0.36537 -17.86723,-0.88074 38.63299,-34.74287 135.95935,-120.36014 136.7924,-120.33524 0.69447,0.0208 17.85482,14.88573 33.54851,29.06106 l 8.81869,7.96546 0,-13.10908 0,-13.10907 7.30932,-0.004 c 17.23562,-0.009 38.22914,-1.44562 37.84789,-2.58937 -0.66301,-1.98904 -14.61759,-10.96601 -25.50288,-16.40598 -11.86637,-5.93027 -27.15494,-11.30416 -40.33359,-14.17716 -12.90968,-2.81436 -47.46852,-2.84939 -60.3998,-0.0612 -32.9045,7.09469 -57.80198,20.48163 -80.88524,43.4906 -24.16706,24.08927 -38.37316,50.94886 -44.56293,84.25548 -2.79352,15.03174 -2.48797,44.35028 0.61406,58.92069 5.91868,27.80037 17.15908,50.22867 36.66991,73.16856 l 8.06608,9.4837 -8.89936,9.73711 c -4.89464,5.35546 -9.29069,9.73715 -9.769,9.73715 -0.47831,0 -4.84455,-4.49875 -9.70276,-9.99722 z"
     id="path3440"
     inkscape:connector-curvature="0"
     transform="scale(0.8,0.8)" />
  <path
     style="fill:#9099a2;fill-opacity:1"
     d="m 258.37049,312.77227 -2.62308,-2.12385 -0.38403,-34.20604 c -0.21121,-18.81332 -0.72441,-34.20603 -1.14043,-34.20603 -0.41603,0 -1.88759,3.5122 -3.27014,7.80488 -4.94054,15.33988 -5.93042,16.93675 -11.40688,18.40148 l -4.91434,1.31438 0,18.04872 c 0,19.73578 -0.57459,24.68953 -2.97041,25.60889 -2.57315,0.98741 -3.49162,-1.898 -3.52676,-11.07948 -0.0327,-8.54787 -1.36424,-13.75581 -2.62236,-10.25685 -0.31523,0.87667 -0.95055,5.94022 -1.41183,11.25233 -0.86043,9.90873 -2.70896,13.20546 -3.94347,7.03293 -0.37688,-1.88444 -0.68524,-8.65749 -0.68524,-15.05124 0,-12.76196 -0.91211,-21.67303 -2.21837,-21.67303 -0.46263,0 -1.24915,3.0062 -1.74783,6.68045 -0.49867,3.67425 -1.5158,6.88223 -2.26026,7.12885 -1.95469,0.64752 -1.87305,-17.0164 0.0911,-19.70249 1.66854,-2.28185 8.81998,-3.69372 19.18732,-3.78802 l 7.09618,-0.0645 2.49541,-7.85076 c 1.37247,-4.31791 3.93481,-11.34637 5.69407,-15.61879 3.92837,-9.54015 5.14188,-10.09919 21.92243,-10.09919 9.96782,0 12.73117,-0.37224 16.07743,-2.16573 3.43676,-1.84199 6.1096,-2.16572 17.88096,-2.16572 11.06803,0 14.34742,0.35527 16.37254,1.77372 2.8862,2.02157 6.05549,8.76096 10.36896,22.04925 1.64329,5.06239 3.75626,9.81345 4.69549,10.55791 1.10216,0.87362 5.45262,1.35358 12.26897,1.35358 9.60314,0 10.8369,0.23709 13.59953,2.6134 2.86027,2.4603 3.03825,3.1232 3.03825,11.31591 0,5.66783 -0.48773,9.19025 -1.39867,10.10119 -2.09121,2.09121 -3.43418,-0.7098 -3.47421,-7.24613 -0.0182,-2.97787 -0.44517,-6.06428 -0.94875,-6.85868 -1.72909,-2.72772 -2.29984,1.78444 -2.29984,18.18194 0,17.74266 -0.62172,22.67793 -2.97041,23.5792 -2.53985,0.97464 -3.49149,-1.87032 -3.52496,-10.53805 -0.0172,-4.46681 -0.3252,-9.21787 -0.68432,-10.55791 -1.21445,-4.53172 -2.56607,-2.47243 -2.56607,3.9096 0,9.58384 -1.19886,16.50656 -2.97672,17.18878 -0.86532,0.33206 -2.00395,-0.0764 -2.5303,-0.90763 -0.52634,-0.83126 -0.96446,-11.34401 -0.97358,-23.36168 l -0.0166,-21.85031 -5.75823,-1.28863 -5.75822,-1.28864 -4.78592,-13.87263 c -2.63225,-7.62994 -4.97719,-13.68135 -5.21097,-13.44757 -0.23379,0.23379 -0.72727,16.75046 -1.09664,36.70372 -0.58923,31.83075 -0.89267,36.49956 -2.47493,38.08048 -1.18044,1.17944 -2.71191,1.5738 -4.4336,1.14168 l -2.63024,-0.66015 -0.64237,-21.79177 c -0.3533,-11.98548 -0.91644,-22.06586 -1.25143,-22.40084 -1.48492,-1.48493 -1.88459,1.77602 -2.37941,19.41399 -0.59212,21.10611 -0.8069,22.82638 -3.14134,25.16082 -1.32653,1.32654 -2.19602,1.41556 -4.32982,0.44334 l -2.66997,-1.21652 -0.0949,-32.58278 c -0.0898,-30.83108 -0.90497,-45.42424 -2.33431,-41.7871 -0.35108,0.89336 -0.90974,7.44138 -1.24148,14.55115 -0.45633,9.78017 -1.02167,13.33867 -2.32245,14.61864 -2.95672,2.90941 -4.45411,-0.89175 -5.12135,-13.00064 -0.58421,-10.60215 -1.11607,-12.96248 -2.58897,-11.48958 -0.38999,0.38999 -1.02289,16.07081 -1.40645,34.84628 -0.61503,30.10644 -0.91489,34.35471 -2.53951,35.97933 -1.69335,1.69335 -1.98295,1.70133 -3.58544,0.0988 -1.40439,-1.4044 -1.83524,-4.97556 -2.21628,-18.36999 -0.26014,-9.14468 -0.72786,-18.27385 -1.03938,-20.28704 -1.22883,-7.94125 -2.38943,-0.8581 -2.77267,16.92169 -0.36846,17.09447 -0.59079,18.8639 -2.62599,20.89909 -2.21239,2.21239 -2.23648,2.21289 -4.84653,0.0996 z"
     id="path3442"
     inkscape:connector-curvature="0"
     transform="scale(0.8,0.8)" />
  <path
     style="fill:#aa0000"
     d="m 308.26624,214.62335 c 0,-7.07974 1.1334,-8.82515 3.21049,-4.94407 2.11832,3.95811 0.66797,11.98268 -2.16572,11.98268 -0.57462,0 -1.04477,-3.16737 -1.04477,-7.03861 z"
     id="path3444"
     inkscape:connector-curvature="0"
     transform="scale(0.8,0.8)" />
  <path
     style="fill:#9099a2;fill-opacity:1"
     d="m 231.11229,396.23917 -12.72364,-0.30507 0,-3.3213 c 0,-5.6677 -2.77647,-9.60081 -18.98914,-26.89974 -8.63607,-9.21469 -16.78946,-18.96045 -18.11864,-21.65725 -2.28605,-4.6382 -2.43474,-6.45697 -2.75043,-33.6437 -0.32451,-27.94629 -0.26998,-28.82147 1.9736,-31.67372 1.66052,-2.111 3.27188,-2.92365 5.74805,-2.89887 7.79636,0.078 9.2765,4.38416 9.34929,27.19956 l 0.0472,14.78107 -3.79002,3.79002 c -3.0521,3.05211 -3.79002,4.6228 -3.79002,8.06728 0,4.84662 2.262,8.41268 12.8985,20.33463 3.70434,4.15202 8.24711,9.86374 10.09505,12.69272 3.35352,5.13384 6.79785,6.69863 7.97759,3.62429 1.0245,-2.66981 -3.40991,-9.54775 -13.51834,-20.9675 -5.41213,-6.11421 -10.14895,-12.34677 -10.52627,-13.85013 -0.83963,-3.34534 2.05777,-6.97756 5.56595,-6.97756 3.164,0 17.79302,13.2477 34.77339,31.48995 14.76822,15.86572 15.04632,16.49609 14.26128,32.32516 -0.4187,8.44245 -0.15443,8.32965 -18.48336,7.89016 z"
     id="path3446"
     inkscape:connector-curvature="0"
     transform="scale(0.8,0.8)" />
  <path
     style="fill:#9099a2;fill-opacity:1"
     d="m 320.48598,384.00956 c 0.42374,-8.03237 1.18059,-12.82946 2.29168,-14.5252 2.77405,-4.23372 25.85617,-28.35601 35.31736,-36.90888 9.39895,-8.49661 12.31437,-9.5997 15.64492,-5.91949 2.85166,3.15105 1.48428,6.533 -6.20625,15.34984 -10.91333,12.51165 -13.97716,16.44891 -15.43108,19.83012 -1.73985,4.04616 -0.99205,6.01245 2.28661,6.01245 1.87156,0 2.99525,-0.96317 4.10586,-3.5193 0.841,-1.93562 6.44801,-9.36676 12.46003,-16.51366 9.64301,-11.4633 10.93182,-13.47914 10.93836,-17.10886 0.008,-4.45328 -2.35989,-10.0299 -4.57196,-10.76725 -1.04622,-0.34874 -1.37636,-5.20035 -1.37636,-20.22647 0,-19.46819 0.0387,-19.79904 2.55641,-21.83772 3.31429,-2.68376 8.24289,-2.64081 10.97937,0.0957 2.05905,2.05905 2.16456,3.59252 2.14195,31.1323 -0.0212,25.78115 -0.24248,29.44289 -2.01247,33.29802 -1.95329,4.25434 -8.94883,12.62603 -27.57123,32.995 -6.56688,7.18276 -9.38,11.07557 -9.39036,12.99434 -0.008,1.50671 -0.30861,3.83587 -0.66773,5.17591 -0.63914,2.38497 -0.98544,2.43644 -16.39037,2.43644 l -15.73744,0 0.6327,-11.99326 z"
     id="path3448"
     inkscape:connector-curvature="0"
     transform="scale(0.8,0.8)" />
  <path
     style="fill:#6d7993;fill-opacity:1"
     d="m 169.91827,458.53814 0.283,-43.58522 12.72364,-0.30508 12.72363,-0.30508 0,43.8903 0,43.89029 -13.00663,0 -13.00664,0 0.283,-43.58521 z"
     id="path3450"
     inkscape:connector-curvature="0"
     transform="scale(0.8,0.8)" />
  <path
     style="fill:#aa0000"
     d="m 225.96869,458.26742 0,-43.85593 12.99435,0 12.99435,0 0.0166,16.51365 c 0.009,9.33297 0.4937,17.21995 1.11382,18.13795 0.8875,1.31381 4.45488,-1.85349 18.6628,-16.56976 l 17.56556,-18.19406 14.68963,0.32683 14.68964,0.32682 -17.64689,16.78437 c -9.70579,9.2314 -17.65617,17.27849 -17.66751,17.88241 -0.0201,1.06982 26.71491,34.10788 35.47674,43.84075 2.90973,3.23221 4.74684,4.50829 5.45632,3.79002 1.16369,-1.1781 14.77517,-32.12961 27.38198,-62.26459 4.36022,-10.42256 8.43262,-19.3081 9.04977,-19.74566 0.61716,-0.43756 8.18779,-0.79667 16.82361,-0.79802 l 15.70151,-0.002 3.71667,8.91948 c 2.04417,4.90571 10.22072,24.17034 18.17013,42.81027 7.9494,18.63993 14.16657,34.35498 13.81594,34.92232 -0.71905,1.16343 -14.82885,1.25256 -22.0226,0.13911 l -4.72853,-0.73188 -3.45151,-9.74576 -3.45152,-9.74577 -18.91374,-0.29469 -18.91374,-0.29469 -3.56826,10.15097 -3.56826,10.15096 -11.46733,0.70164 c -6.30704,0.3859 -18.33539,0.70115 -26.72968,0.70057 l -15.26233,-0.001 -14.07722,-17.59546 c -7.74246,-9.6775 -14.87502,-17.74242 -15.85013,-17.92205 -0.97511,-0.17963 -4.75159,2.43112 -8.39218,5.80166 l -6.61927,6.12827 0,11.79485 0,11.79485 -12.99435,0 -12.99435,0 0,-43.85593 z m 163.51224,7.72467 c 0,-1.03162 -11.03519,-32.61744 -12.07329,-34.55712 -0.94459,-1.765 -1.34976,-1.90245 -2.01322,-0.68298 -2.29954,4.22666 -11.90884,32.97482 -11.43491,34.20985 0.40932,1.06666 3.70104,1.42705 13.03452,1.42705 6.8678,0 12.4869,-0.17856 12.4869,-0.3968 z"
     id="path3452"
     inkscape:connector-curvature="0"
     transform="scale(0.8,0.8)" />
  <path
     style="fill:#6d7993;fill-opacity:1"
     d="m 225.96869,458.26742 0,-43.85593 12.99435,0 12.99435,0 0.0166,16.51365 c 0.009,9.08251 0.4991,17.24459 1.08885,18.13795 0.86334,1.30779 4.56643,-1.93038 19.00459,-16.61859 l 17.93232,-18.24289 13.65891,0.78782 13.6589,0.78782 -17.17876,16.42314 c -11.6611,11.1482 -16.97842,16.94522 -16.55502,18.04856 1.62628,4.23803 38.05106,47.54295 39.98948,47.54295 1.275,0 5.37836,-8.89929 23.04917,-49.98856 l 13.81408,-32.12133 9.92005,-0.7205 c 5.45604,-0.39628 12.80223,-0.56033 16.32489,-0.36455 l 6.40483,0.35596 11.7437,27.61299 c 16.98223,39.93036 23.95168,57.43501 23.17637,58.21032 -1.04711,1.04712 -22.1003,0.43905 -24.20955,-0.69924 -1.02461,-0.55294 -3.30461,-5.19159 -5.06665,-10.30812 l -3.20374,-9.30277 -19.17629,0 -19.1763,0 -3.46168,9.67739 c -1.90393,5.32256 -4.06019,9.90705 -4.79171,10.18776 -0.73151,0.28071 -12.73621,0.82261 -26.67712,1.20423 l -25.3471,0.69385 -6.49718,-8.43176 c -11.83542,-15.35951 -22.22763,-27.40868 -23.63952,-27.40868 -0.76591,0 -4.39782,2.55826 -8.07092,5.68503 l -6.67836,5.68503 -0.0264,12.1822 -0.0264,12.1822 -12.99435,0 -12.99435,0 0,-43.85593 z m 163.51224,7.12001 c 0,-1.54563 -9.81017,-29.47488 -11.5468,-32.8734 -0.84688,-1.6573 -1.94979,-2.75988 -2.45093,-2.45016 -1.41944,0.87727 -12.18601,34.05052 -11.442,35.25436 0.84171,1.36191 25.43973,1.42882 25.43973,0.0692 z"
     id="path3454"
     inkscape:connector-curvature="0"
     transform="scale(0.8,0.8)" />
  <path
     style="fill:#9099a2;fill-opacity:0.00392157"
     id="path4256"
     sodipodi:type="arc"
     sodipodi:cx="210.94162"
     sodipodi:cy="174.55743"
     sodipodi:rx="3.8983052"
     sodipodi:ry="3.0320151"
     sodipodi:start="0"
     sodipodi:end="4.2971172"
     d="m 214.83993,174.55743 a 3.8983052,3.0320151 0 0 1 -3.36041,3.00302 3.8983052,3.0320151 0 0 1 -4.28776,-2.17429 3.8983052,3.0320151 0 0 1 2.17713,-3.60304 l 1.57273,2.77431 z" />
  <path
     style="fill:#9099a2;fill-opacity:0.00392157"
     id="path4258"
     sodipodi:type="arc"
     sodipodi:cx="236.06404"
     sodipodi:cy="174.1243"
     sodipodi:rx="9.9623356"
     sodipodi:ry="6.9303198"
     sodipodi:start="0"
     sodipodi:end="4.0313549"
     d="m 246.02638,174.1243 a 9.9623356,6.9303198 0 0 1 -7.72015,6.75251 9.9623356,6.9303198 0 0 1 -11.19524,-3.71298 9.9623356,6.9303198 0 0 1 2.6808,-8.42385 l 6.27225,5.38432 z" />
  <path
     style="fill:#9099a2;fill-opacity:0.00392157"
     id="path4262"
     sodipodi:type="arc"
     sodipodi:cx="-133.84181"
     sodipodi:cy="182.35405"
     sodipodi:rx="21.224106"
     sodipodi:ry="18.625235"
     sodipodi:start="0"
     sodipodi:end="4.0313615"
     d="m -112.61771,182.35405 a 21.224106,18.625235 0 0 1 -16.44731,18.14738 21.224106,18.625235 0 0 1 -23.85073,-9.97872 21.224106,18.625235 0 0 1 5.71142,-22.63909 l 13.36252,14.47043 z" />
  <path
     style="fill:#9099a2;fill-opacity:0.00392157"
     id="path4264"
     sodipodi:type="arc"
     sodipodi:cx="-151.1676"
     sodipodi:cy="210.94162"
     sodipodi:rx="0.43314499"
     sodipodi:ry="16.892656"
     sodipodi:start="0"
     sodipodi:end="4.0313615"
     d="m -150.73446,210.94162 a 0.43314499,16.892656 0 0 1 -0.33566,16.45926 0.43314499,16.892656 0 0 1 -0.48675,-9.05047 0.43314499,16.892656 0 0 1 0.11656,-20.53314 l 0.27271,13.12435 z" />
  <path
     style="fill:#9099a2;fill-opacity:0.00392157"
     id="path4268"
     sodipodi:type="arc"
     sodipodi:cx="-170.22598"
     sodipodi:cy="209.20903"
     sodipodi:rx="39.416195"
     sodipodi:ry="34.218456"
     sodipodi:start="0"
     sodipodi:end="4.0313615"
     d="m -130.80979,209.20903 a 39.416195,34.218456 0 0 1 -30.54501,33.34054 39.416195,34.218456 0 0 1 -44.2942,-18.333 39.416195,34.218456 0 0 1 10.60691,-41.59276 l 24.81611,26.58522 z" />
  <path
     style="fill:#9099a2;fill-opacity:0.00392157"
     id="path4270"
     sodipodi:type="arc"
     sodipodi:cx="-155.06592"
     sodipodi:cy="221.77023"
     sodipodi:rx="24.256121"
     sodipodi:ry="28.587572"
     sodipodi:start="0"
     sodipodi:end="4.0313615"
     d="m -130.8098,221.77023 a 24.256121,28.587572 0 0 1 -18.79693,27.85413 24.256121,28.587572 0 0 1 -27.25797,-15.31618 24.256121,28.587572 0 0 1 6.52733,-34.74838 l 15.27145,22.21043 z" />
  <path
     style="fill:#9099a2;fill-opacity:0.00392157"
     id="path4272"
     sodipodi:type="arc"
     sodipodi:cx="-212.67419"
     sodipodi:cy="237.7966"
     sodipodi:rx="29.887005"
     sodipodi:ry="21.224106"
     sodipodi:start="0"
     sodipodi:end="4.0313615"
     d="m -182.78719,237.7966 a 29.887005,21.224106 0 0 1 -23.1605,20.67958 29.887005,21.224106 0 0 1 -33.58572,-11.37111 29.887005,21.224106 0 0 1 8.04261,-25.79803 l 18.81661,16.48956 z" />
  <path
     style="fill:#9099a2;fill-opacity:0.00392157"
     id="path4274"
     sodipodi:type="arc"
     sodipodi:cx="-173.25801"
     sodipodi:cy="236.06404"
     sodipodi:rx="9.5291901"
     sodipodi:ry="22.956684"
     sodipodi:start="0"
     sodipodi:end="4.0313615"
     d="m -163.72882,236.06404 a 9.5291901,22.956684 0 0 1 -7.38451,22.36771 9.5291901,22.956684 0 0 1 -10.70849,-12.29936 9.5291901,22.956684 0 0 1 2.56431,-27.904 l 5.9995,17.83565 z" />
  <path
     style="fill:#90ddca;fill-opacity:0.00392157"
     id="path4276"
     sodipodi:type="arc"
     sodipodi:cx="-148.13559"
     sodipodi:cy="226.96799"
     sodipodi:rx="29.453859"
     sodipodi:ry="27.721279"
     sodipodi:start="0"
     sodipodi:end="4.0313615"
     d="m -118.68173,226.96799 a 29.453859,27.721279 0 0 1 -22.82484,27.01006 29.453859,27.721279 0 0 1 -33.09897,-14.85206 29.453859,27.721279 0 0 1 7.92605,-33.69539 l 18.5439,21.53739 z" />
  <path
     style="fill:#9099a2;fill-opacity:0.00392157"
     id="path4278"
     sodipodi:type="arc"
     sodipodi:cx="-146.83615"
     sodipodi:cy="226.53484"
     sodipodi:rx="1.299435"
     sodipodi:ry="5.6308851"
     sodipodi:start="0.048183114"
     sodipodi:end="4.5233965"
     d="m -145.53822,226.80604 a 1.299435,5.6308851 0 0 1 -1.25782,5.357 1.299435,5.6308851 0 0 1 -1.3317,-5.01042 1.299435,5.6308851 0 0 1 1.04746,-6.14841 l 0.24413,5.53063 z" />
  <path
     style="fill:#9099a2;fill-opacity:1"
     id="path4292"
     sodipodi:type="arc"
     sodipodi:cx="-151.1676"
     sodipodi:cy="301.90207"
     sodipodi:rx="8.2297554"
     sodipodi:ry="13.427495"
     sodipodi:start="0"
     sodipodi:end="0.013652925"
     sodipodi:open="true"
     d="m -142.93785,301.90207 a 8.2297554,13.427495 0 0 1 -7.6e-4,0.18332" />
  <path
     style="fill:#9099a2;fill-opacity:1"
     id="path4296"
     sodipodi:type="arc"
     sodipodi:cx="180.18832"
     sodipodi:cy="203.57816"
     sodipodi:rx="5.1977425"
     sodipodi:ry="5.1977391"
     sodipodi:start="1.9925139"
     sodipodi:end="1.9627973"
     d="m 178.06074,208.32051 a 5.1977425,5.1977391 0 0 1 -2.63045,-6.83465 5.1977425,5.1977391 0 0 1 6.81492,-2.68114 5.1977425,5.1977391 0 0 1 2.7317,6.7948 5.1977425,5.1977391 0 0 1 -6.77432,2.78211"
     sodipodi:open="true" />
  <path
     style="fill:#9099a2;fill-opacity:1"
     id="path4296-3"
     sodipodi:type="arc"
     sodipodi:cx="277.2128"
     sodipodi:cy="200.97928"
     sodipodi:rx="5.1977425"
     sodipodi:ry="5.1977391"
     sodipodi:start="1.9925139"
     sodipodi:end="1.9627973"
     d="m 275.08522,205.72163 a 5.1977425,5.1977391 0 0 1 -2.63045,-6.83464 5.1977425,5.1977391 0 0 1 6.81492,-2.68115 5.1977425,5.1977391 0 0 1 2.7317,6.7948 5.1977425,5.1977391 0 0 1 -6.77433,2.78211"
     sodipodi:open="true" />
  <path
     style="fill:#9099a2;fill-opacity:1"
     id="path4296-6"
     sodipodi:type="arc"
     sodipodi:cx="214.40678"
     sodipodi:cy="174.12431"
     sodipodi:rx="7.3634672"
     sodipodi:ry="6.9303188"
     sodipodi:start="1.9925139"
     sodipodi:end="1.9627973"
     d="m 211.39271,180.44745 a 7.3634672,6.9303188 0 0 1 -3.72647,-9.11286 7.3634672,6.9303188 0 0 1 9.65447,-3.57486 7.3634672,6.9303188 0 0 1 3.86991,9.05974 7.3634672,6.9303188 0 0 1 -9.59696,3.70947"
     sodipodi:open="true" />
  <path
     style="fill:#9099a2;fill-opacity:1"
     id="path4296-6-7"
     sodipodi:type="arc"
     sodipodi:cx="244.29378"
     sodipodi:cy="170.65913"
     sodipodi:rx="7.3634672"
     sodipodi:ry="6.9303193"
     sodipodi:start="1.9925139"
     sodipodi:end="1.9627973"
     d="m 241.2797,176.98227 a 7.3634672,6.9303193 0 0 1 -3.72646,-9.11286 7.3634672,6.9303193 0 0 1 9.65446,-3.57486 7.3634672,6.9303193 0 0 1 3.86991,9.05974 7.3634672,6.9303193 0 0 1 -9.59696,3.70947"
     sodipodi:open="true" />
  <g
     inkscape:groupmode="layer"
     id="layer3"
     inkscape:label="Layer 2"
     style="display:inline;filter:url(#filter4439)" />
  <g
     inkscape:groupmode="layer"
     id="layer1"
     inkscape:label="Layer 1"
     sodipodi:insensitive="true" />
  <path
     style="opacity:0.46000001;fill:#d5d5d5;fill-opacity:1"
     id="path4395"
     sodipodi:type="arc"
     sodipodi:cx="220.90396"
     sodipodi:cy="210.9416"
     sodipodi:rx="126.0452"
     sodipodi:ry="122.58002"
     sodipodi:start="1.9925202"
     sodipodi:end="1.9627973"
     sodipodi:open="true"
     d="M 169.30939,322.78173 A 126.0452,122.58002 0 0 1 105.52205,161.59788 126.0452,122.58002 0 0 1 270.78381,98.368165 126.0452,122.58002 0 0 1 337.02715,258.61234 126.0452,122.58002 0 0 1 172.74986,324.22349" />
</svg>
